<?xml version="1.0" encoding="utf-8"?>
<!-- Generator: Adobe Illustrator 22.0.1, SVG Export Plug-In . SVG Version: 6.00 Build 0)  -->
<svg version="1.1" id="Layer_1" xmlns="http://www.w3.org/2000/svg" xmlns:xlink="http://www.w3.org/1999/xlink" x="0px" y="0px"
	 viewBox="0 0 95.4 105.5" style="enable-background:new 0 0 95.4 105.5;" xml:space="preserve">
<style type="text/css">
	.st0{fill:#0A446B;}
	.st1{fill:#02385C;}
	.st2{fill:#002F51;}
	.st3{fill:#FFFFFF;}
</style>
<g>
	<g>
		<g>
			<path class="st0" d="M94.8,34.3v37c0,5.3-2.9,10.4-7.5,13l-32.1,18.5c-1.5,0.9-3.2,1.5-4.8,1.8c-1.2,0.2-2.4,0.3-3.7,0.2
				c-0.7,0-1.3-0.1-2-0.3c-1.6-0.3-3.2-0.9-4.6-1.8l-32-18.4c-4.6-2.7-7.5-7.7-7.5-13v-37c0-5.4,2.9-10.4,7.5-13L40.2,2.7
				c4.6-2.7,10.4-2.7,15,0l32.1,18.5C91.9,23.9,94.8,28.9,94.8,34.3z"/>
		</g>
		<path class="st1" d="M94.8,34.3v37c0,5.3-2.9,10.4-7.5,13l-32.1,18.5c-2.4,1.4-4.9,2-7.5,2V0.7c2.6,0,5.2,0.7,7.5,2l32.1,18.5
			C91.9,23.9,94.8,28.9,94.8,34.3z"/>
	</g>
	<path class="st2" d="M94.8,56.5L66.9,35.2L27.5,69.6l34.8,29.1l26.1-15.1c0,0,6.6-4,6.4-12.3C94.6,63,94.8,56.5,94.8,56.5z"/>
	<circle class="st0" cx="47.7" cy="52.8" r="26.3"/>
	<g>
		<path class="st3" d="M66,69.5c-0.6,0-1.2-0.1-1.7-0.4l-15.8-31c0.2-1.2,1-2.3,2.2-2.9c2-1,4.5-0.2,5.5,1.8l13.6,26.7
			c0.6,1.1,0.6,2.4,0.1,3.5c2.7-4.1,4.2-9,4.2-14.3c0-14.5-11.8-26.3-26.3-26.3c-14.5,0-26.3,11.8-26.3,26.3c0,4.7,1.2,9.1,3.4,12.9
			c-0.2-0.9-0.1-1.9,0.4-2.8l13.5-25.1c0.7-1.3,2.1-2.2,3.6-2.2h0c1.5,0,2.9,0.9,3.6,2.2l10.3,19.8c1,2,0.3,4.5-1.7,5.5
			c-2,1-4.5,0.3-5.5-1.7l-6.7-12.8l-9.8,18.2c-0.7,1.4-2.2,2.2-3.6,2.2c-0.6,0-1.3-0.2-1.9-0.5c-0.2-0.1-0.4-0.2-0.6-0.4
			c4.8,6.7,12.6,11.1,21.5,11.1c8.7,0,16.4-4.2,21.2-10.7c-0.3,0.3-0.6,0.5-1,0.7C67.3,69.4,66.6,69.5,66,69.5z"/>
	</g>
</g>
</svg>
